<svg id="_x31__x2C_5" enable-background="new 0 0 24 24" height="512" viewBox="0 0 24 24" width="512" xmlns="http://www.w3.org/2000/svg"><path d="m13.861 3.609h-6.144-4.578c-1.417 0-2.564 1.147-2.564 2.564v9.081 2.573c0 1.417 1.147 2.564 2.564 2.564h6.144 4.578c1.417 0 2.564-1.147 2.564-2.564v-9.081-2.573c0-1.417-1.147-2.564-2.564-2.564z" fill="#2196f3"/><path d="m11.875 2.125h-.99c-.297-1.035-1.251-1.8-2.385-1.8s-2.088.765-2.385 1.8h-.99c-.369 0-.675.306-.675.675v1.8c0 .864.711 1.575 1.575 1.575h4.95c.864 0 1.575-.711 1.575-1.575v-1.8c0-.369-.306-.675-.675-.675z" fill="#1976d2"/><path d="m18 24c-3.309 0-6-2.691-6-6 0-.414.336-.75.75-.75s.75.336.75.75c0 2.481 2.019 4.5 4.5 4.5s4.5-2.019 4.5-4.5-2.019-4.5-4.5-4.5c-1.464 0-2.737.665-3.587 1.872-.237.337-.707.422-1.045.182-.339-.238-.42-.706-.182-1.045 1.123-1.595 2.876-2.509 4.814-2.509 3.309 0 6 2.691 6 6s-2.691 6-6 6z"/><path d="m16 16h-2.195c-.414 0-.75-.336-.75-.75v-2.25c0-.414.336-.75.75-.75s.75.336.75.75v1.5h1.445c.414 0 .75.336.75.75s-.336.75-.75.75z"/><path d="m10.06 21h-7.31c-1.517 0-2.75-1.233-2.75-2.75v-12.5c0-1.517 1.233-2.75 2.75-2.75h1.88c.414 0 .75.336.75.75s-.336.75-.75.75h-1.88c-.689 0-1.25.561-1.25 1.25v12.5c0 .689.561 1.25 1.25 1.25h7.31c.414 0 .75.336.75.75s-.336.75-.75.75z"/><path d="m16.25 10.7c-.414 0-.75-.336-.75-.75v-4.2c0-.689-.561-1.25-1.25-1.25h-1.87c-.414 0-.75-.336-.75-.75s.336-.75.75-.75h1.87c1.517 0 2.75 1.233 2.75 2.75v4.2c0 .414-.336.75-.75.75z"/><path d="m11.25 6.5h-5.5c-.965 0-1.75-.785-1.75-1.75v-2c0-.414.336-.75.75-.75h1.104c.328-1.153 1.389-2 2.646-2s2.318.847 2.646 2h1.104c.414 0 .75.336.75.75v2c0 .965-.785 1.75-1.75 1.75zm-5.75-3v1.25c0 .138.112.25.25.25h5.5c.138 0 .25-.112.25-.25v-1.25h-1c-.414 0-.75-.336-.75-.75 0-.689-.561-1.25-1.25-1.25s-1.25.561-1.25 1.25c0 .414-.336.75-.75.75z"/><path d="m13.25 9.5h-9.5c-.414 0-.75-.336-.75-.75s.336-.75.75-.75h9.5c.414 0 .75.336.75.75s-.336.75-.75.75z"/><path d="m11.08 12.5h-7.33c-.414 0-.75-.336-.75-.75s.336-.75.75-.75h7.33c.414 0 .75.336.75.75s-.336.75-.75.75z"/><path d="m10.8 15.5h-7.05c-.414 0-.75-.336-.75-.75s.336-.75.75-.75h7.05c.414 0 .75.336.75.75s-.336.75-.75.75z"/></svg>